# xmcd CD database file
#
# Track frame offsets:
#	150
#	26340
#	46860
#	64714
#	75995
#
# Disc length: 1262 seconds
#
# Revision: 1
# Processed by: cddbd v1.5.2PL0 Copyright (c) Steve Scherf et al.
# Submitted via: CDex 1.70beta2
#
DISCID=2c04ec05
DTITLE=Bliss N Eso - Flying Colours (Bonus Disk)
DYEAR=2008
DGENRE=Hip-Hop
TTITLE0=The Dark Tower
TTITLE1=Lonely Streets (feat Debaser)
TTITLE2=Bullet And A Target (Acoustic Version feat The Zulu Connections Choir)
TTITLE3=Mexican Spit Fire
TTITLE4=Choof Choof Train
EXTD=YEAR: 2008
EXTT0=
EXTT1=
EXTT2=
EXTT3=
EXTT4=
PLAYORDER=
